<svg width="60" height="60" viewBox="0 0 60 60" fill="none" xmlns="http://www.w3.org/2000/svg">
<path d="M3.62744 14.3672C3.36223 14.3672 3.10789 14.2618 2.92035 14.0743C2.73282 13.8867 2.62746 13.6324 2.62744 13.3672V11.0303C2.62866 9.96978 3.05047 8.95307 3.80036 8.20319C4.55024 7.4533 5.56695 7.03148 6.62744 7.03027H15.8091V2C15.8091 1.73478 15.9144 1.48043 16.102 1.29289C16.2895 1.10536 16.5439 1 16.8091 1C17.0743 1 17.3287 1.10536 17.5162 1.29289C17.7037 1.48043 17.8091 1.73478 17.8091 2V8.03027C17.8091 8.29549 17.7037 8.54984 17.5162 8.73738C17.3287 8.92491 17.0743 9.03027 16.8091 9.03027H6.62744C6.09717 9.0308 5.58877 9.24168 5.21381 9.61664C4.83885 9.9916 4.62797 10.5 4.62744 11.0303V13.3672C4.62743 13.6324 4.52207 13.8867 4.33453 14.0743C4.147 14.2618 3.89265 14.3672 3.62744 14.3672ZM42.6348 8.03027V2C42.6348 1.73478 42.5294 1.48043 42.3419 1.29289C42.1543 1.10536 41.9 1 41.6348 1C41.3696 1 41.1152 1.10536 40.9277 1.29289C40.7401 1.48043 40.6348 1.73478 40.6348 2V7.03027H20.8525C20.5873 7.03027 20.333 7.13563 20.1454 7.32316C19.9579 7.5107 19.8525 7.76505 19.8525 8.03027C19.8525 8.29549 19.9579 8.54984 20.1454 8.73738C20.333 8.92491 20.5873 9.03027 20.8525 9.03027H41.6348C41.9 9.03026 42.1543 8.9249 42.3419 8.73736C42.5294 8.54983 42.6348 8.29548 42.6348 8.03027V8.03027ZM57.1348 56V11.0303C57.1336 9.96978 56.7117 8.95307 55.9619 8.20319C55.212 7.4533 54.1953 7.03148 53.1348 7.03027H45.419C45.1538 7.03027 44.8994 7.13563 44.7119 7.32316C44.5244 7.5107 44.419 7.76505 44.419 8.03027C44.419 8.29549 44.5244 8.54984 44.7119 8.73738C44.8994 8.92491 45.1538 9.03027 45.419 9.03027H53.1348C53.6651 9.0308 54.1735 9.24168 54.5485 9.61664C54.9234 9.9916 55.1343 10.5 55.1348 11.0303V56C55.1342 56.5302 54.9233 57.0386 54.5484 57.4135C54.1734 57.7885 53.6651 57.9994 53.1348 58H6.62744C6.09719 57.9994 5.58884 57.7885 5.2139 57.4135C4.83896 57.0386 4.62805 56.5302 4.62744 56V18.477H51.6738C51.939 18.477 52.1934 18.3716 52.3809 18.1841C52.5685 17.9966 52.6738 17.7422 52.6738 17.477C52.6738 17.2118 52.5685 16.9574 52.3809 16.7699C52.1934 16.5824 51.939 16.477 51.6738 16.477H3.62744C3.36223 16.477 3.10788 16.5824 2.92035 16.7699C2.73282 16.9574 2.62745 17.2118 2.62744 17.477V56C2.62857 57.0605 3.05037 58.0773 3.80027 58.8272C4.55017 59.5771 5.56692 59.9989 6.62744 60H53.1348C54.1953 59.9989 55.212 59.5771 55.9619 58.8272C56.7118 58.0773 57.1336 57.0605 57.1348 56V56ZM20.2476 32.0986V28.2378C20.2464 27.1773 19.8245 26.1606 19.0746 25.4107C18.3248 24.6608 17.3081 24.239 16.2476 24.2378H12.3862C11.3257 24.239 10.309 24.6608 9.55914 25.4107C8.80926 26.1606 8.38744 27.1773 8.38623 28.2378V32.0986C8.38736 33.1591 8.80915 34.1759 9.55905 34.9258C10.309 35.6757 11.3257 36.0975 12.3862 36.0986H16.2476C17.3081 36.0975 18.3248 35.6757 19.0747 34.9258C19.8246 34.1759 20.2464 33.1591 20.2476 32.0986ZM16.2476 26.2378C16.7778 26.2383 17.2862 26.4492 17.6612 26.8242C18.0361 27.1991 18.247 27.7075 18.2476 28.2378V32.0986C18.247 32.6289 18.036 33.1372 17.6611 33.5122C17.2862 33.8871 16.7778 34.098 16.2476 34.0986H12.3862C11.856 34.098 11.3476 33.8871 10.9727 33.5122C10.5977 33.1372 10.3868 32.6289 10.3862 32.0986V28.2378C10.3868 27.7075 10.5976 27.1991 10.9726 26.8242C11.3476 26.4492 11.856 26.2383 12.3862 26.2378H16.2476ZM36.0493 32.0986V28.2378C36.0481 27.1773 35.6263 26.1606 34.8764 25.4107C34.1265 24.6608 33.1098 24.239 32.0493 24.2378H28.188C27.1275 24.239 26.1108 24.6608 25.3609 25.4107C24.611 26.1606 24.1892 27.1773 24.188 28.2378V32.0986C24.1891 33.1591 24.6109 34.1759 25.3608 34.9258C26.1107 35.6757 27.1275 36.0975 28.188 36.0986H32.0493C33.1099 36.0975 34.1266 35.6757 34.8765 34.9258C35.6264 34.1759 36.0482 33.1591 36.0493 32.0986V32.0986ZM32.0493 26.2378C32.5796 26.2383 33.088 26.4492 33.4629 26.8242C33.8379 27.1991 34.0488 27.7075 34.0493 28.2378V32.0986C34.0487 32.6289 33.8378 33.1372 33.4629 33.5122C33.0879 33.8871 32.5796 34.098 32.0493 34.0986H28.188C27.6578 34.098 27.1494 33.8871 26.7745 33.5122C26.3995 33.1372 26.1886 32.6289 26.188 32.0986V28.2378C26.1885 27.7075 26.3994 27.1991 26.7744 26.8242C27.1493 26.4492 27.6577 26.2383 28.188 26.2378H32.0493ZM20.2476 48.6396V44.7783C20.2464 43.7178 19.8246 42.701 19.0747 41.9511C18.3248 41.2012 17.3081 40.7795 16.2476 40.7783H12.3862C11.3257 40.7795 10.309 41.2012 9.55905 41.9511C8.80915 42.701 8.38736 43.7178 8.38623 44.7783V48.6396C8.38736 49.7002 8.80915 50.7169 9.55905 51.4668C10.309 52.2167 11.3257 52.6385 12.3862 52.6396H16.2476C17.3081 52.6385 18.3248 52.2167 19.0747 51.4668C19.8246 50.7169 20.2464 49.7002 20.2476 48.6396V48.6396ZM16.2476 42.7783C16.7778 42.7789 17.2862 42.9898 17.6611 43.3648C18.036 43.7397 18.247 44.2481 18.2476 44.7783V48.6396C18.247 49.1699 18.036 49.6783 17.6611 50.0532C17.2862 50.4281 16.7778 50.639 16.2476 50.6396H12.3862C11.856 50.639 11.3476 50.4281 10.9727 50.0532C10.5977 49.6783 10.3868 49.1699 10.3862 48.6396V44.7783C10.3868 44.2481 10.5977 43.7397 10.9727 43.3648C11.3476 42.9898 11.856 42.7789 12.3862 42.7783H16.2476ZM36.0493 48.6396V44.7783C36.0482 43.7178 35.6264 42.701 34.8765 41.9511C34.1266 41.2012 33.1098 40.7795 32.0493 40.7783H28.188C27.1275 40.7795 26.1107 41.2012 25.3608 41.9511C24.6109 42.701 24.1891 43.7178 24.188 44.7783V48.6396C24.1891 49.7002 24.6109 50.7169 25.3608 51.4668C26.1107 52.2167 27.1275 52.6385 28.188 52.6396H32.0493C33.1099 52.6385 34.1266 52.2167 34.8765 51.4668C35.6264 50.7169 36.0482 49.7002 36.0493 48.6396ZM32.0493 42.7783C32.5796 42.7789 33.0879 42.9898 33.4629 43.3648C33.8378 43.7397 34.0487 44.2481 34.0493 44.7783V48.6396C34.0487 49.1699 33.8378 49.6783 33.4629 50.0532C33.0879 50.4281 32.5796 50.639 32.0493 50.6396H28.188C27.6578 50.639 27.1494 50.4281 26.7745 50.0532C26.3995 49.6783 26.1886 49.1699 26.188 48.6396V44.7783C26.1886 44.2481 26.3995 43.7397 26.7745 43.3648C27.1494 42.9898 27.6578 42.7789 28.188 42.7783H32.0493ZM51.3765 32.0986V28.2378C51.3752 27.1773 50.9534 26.1606 50.2035 25.4107C49.4537 24.6608 48.437 24.239 47.3765 24.2378H43.5146C42.4542 24.239 41.4374 24.6608 40.6876 25.4107C39.9377 26.1606 39.5159 27.1773 39.5146 28.2378V32.0986C39.5158 33.1591 39.9376 34.1759 40.6875 34.9258C41.4374 35.6757 42.4541 36.0975 43.5146 36.0986H47.3765C48.437 36.0975 49.4537 35.6757 50.2036 34.9258C50.9535 34.1759 51.3753 33.1591 51.3765 32.0986V32.0986ZM47.3765 26.2378C47.9067 26.2383 48.4151 26.4492 48.7901 26.8242C49.165 27.1991 49.3759 27.7075 49.3765 28.2378V32.0986C49.3759 32.6289 49.1649 33.1372 48.79 33.5122C48.4151 33.8871 47.9067 34.098 47.3765 34.0986H43.5146C42.9844 34.098 42.476 33.8871 42.1011 33.5122C41.7262 33.1372 41.5153 32.6289 41.5146 32.0986V28.2378C41.5152 27.7075 41.7261 27.1991 42.101 26.8242C42.476 26.4492 42.9844 26.2383 43.5146 26.2378H47.3765Z" fill="#ffffff" id="id_101"></path>
</svg>